<?xml version="1.0" ?><svg viewBox="0 0 64 64" xmlns="http://www.w3.org/2000/svg"><defs><style>.cls-1{fill:#eaeaea;}.cls-2{fill:#ffce56;}.cls-2,.cls-3,.cls-4,.cls-5{stroke:#4c241d;stroke-linecap:round;stroke-linejoin:round;stroke-width:2px;}.cls-3{fill:none;}.cls-4{fill:#bf7e68;}.cls-5{fill:#fc8c29;}.cls-6{fill:#4c241d;}</style></defs><g id="pumpkin-cake"><circle class="cls-1" cx="34" cy="31" r="23"/><ellipse class="cls-2" cx="32" cy="42.5" rx="23" ry="9.5"/><path class="cls-3" d="M25.3536,17.2245a2.5789,2.5789,0,0,0-1.8924,2.3333c0,.9624,1.5911,1.2272,1.8924,2.3333a2.6453,2.6453,0,0,1-.9462,2.3334"/><path class="cls-3" d="M32.3536,11.2245a2.5789,2.5789,0,0,0-1.8924,2.3333c0,.9624,1.5911,1.2272,1.8924,2.3333a2.6453,2.6453,0,0,1-.9462,2.3334"/><path class="cls-3" d="M39.3536,17.2245a2.5789,2.5789,0,0,0-1.8924,2.3333c0,.9624,1.5911,1.2272,1.8924,2.3333a2.6453,2.6453,0,0,1-.9462,2.3334"/><path class="cls-4" d="M49.8359,58H14.1641a5.9453,5.9453,0,0,1-5.5872-3.9134L6,47H58l-2.5769,7.0866A5.9453,5.9453,0,0,1,49.8359,58Z"/><path class="cls-5" d="M55.0769,41a25.25,25.25,0,0,0-8.8057,1.5862A15.5143,15.5143,0,0,0,38.9231,41,16.2721,16.2721,0,0,0,32,42.36,16.2721,16.2721,0,0,0,25.0769,41a15.5143,15.5143,0,0,0-7.3481,1.5862A25.25,25.25,0,0,0,8.9231,41C3.8251,41,2,42.7908,2,45s1.8251,4,6.9231,4a25.25,25.25,0,0,0,8.8057-1.5862A15.5143,15.5143,0,0,0,25.0769,49,16.2721,16.2721,0,0,0,32,47.64,16.2721,16.2721,0,0,0,38.9231,49a15.5143,15.5143,0,0,0,7.3481-1.5862A25.25,25.25,0,0,0,55.0769,49C60.1749,49,62,47.2091,62,45S60.1749,41,55.0769,41Z"/><line class="cls-3" x1="32" x2="32" y1="37" y2="36"/><line class="cls-3" x1="37" x2="38" y1="37" y2="36"/><line class="cls-3" x1="27" x2="26" y1="37" y2="36"/><circle class="cls-3" cx="51" cy="26" r="2"/><circle class="cls-6" cx="8" cy="25" r="1"/><line class="cls-3" x1="11" x2="14" y1="14" y2="17"/><line class="cls-3" x1="14" x2="11" y1="14" y2="17"/><line class="cls-3" x1="3" x2="61" y1="58" y2="58"/><path class="cls-3" d="M17.7288,42.5862a3.9679,3.9679,0,0,0-1.6951,1.6077"/><path class="cls-3" d="M32,42.36a4.4682,4.4682,0,0,0-2.09,1.7717"/><path class="cls-3" d="M46.2712,42.5862A6.5383,6.5383,0,0,0,44.0266,43.95"/></g></svg>