<?xml version="1.0" ?><svg viewBox="0 0 64 64" xmlns="http://www.w3.org/2000/svg"><defs><style>.cls-1{fill:#eaeaea;}.cls-2{fill:#a9ba5a;}.cls-2,.cls-3,.cls-4,.cls-7,.cls-8{stroke:#4c241d;}.cls-2,.cls-3,.cls-4,.cls-5,.cls-7,.cls-8{stroke-linecap:round;stroke-linejoin:round;stroke-width:2px;}.cls-3{fill:#e66353;}.cls-4,.cls-5{fill:none;}.cls-5{stroke:#fff;}.cls-6{fill:#4c241d;}.cls-7{fill:#bf7e68;}.cls-8{fill:#ffce56;}</style></defs><g id="cidar"><circle class="cls-1" cx="36" cy="30" r="23"/><path class="cls-2" d="M29.75,28.5A7.25,7.25,0,1,1,37,21.25,7.258,7.258,0,0,1,29.75,28.5Zm0-11.5A4.25,4.25,0,1,0,34,21.25,4.2547,4.2547,0,0,0,29.75,17Z"/><path class="cls-2" d="M27,14H20l-1,7-5.1167,3.98a8.6114,8.6114,0,0,0-3.2537,7.9L14,59H33l3.37-26.1208a8.6114,8.6114,0,0,0-3.2537-7.9L28,21Z"/><path class="cls-3" d="M48.02,38.1376a7.8306,7.8306,0,0,0-4.92.6839,7.8306,7.8306,0,0,0-4.92-.6839c-4.81.9371-7.8,6.3358-6.6778,12.0582s5.931,9.6017,10.7412,8.6646a7.5765,7.5765,0,0,0,.8569-.221,7.5765,7.5765,0,0,0,.8569.221c4.81.9371,9.6192-2.9422,10.7412-8.6646S52.8305,39.0747,48.02,38.1376Z"/><path class="cls-4" d="M46.1,33.1294s-2.7355.9118-2.9822,5.3476"/><path class="cls-5" d="M36.5151,41.9481A4.6292,4.6292,0,0,0,34.5893,45.8"/><circle class="cls-6" cx="50" cy="14" r="1"/><line class="cls-4" x1="42" x2="45" y1="7" y2="10"/><line class="cls-4" x1="45" x2="42" y1="7" y2="10"/><circle class="cls-4" cx="47" cy="24" r="2"/><rect class="cls-2" height="3" width="9" x="19" y="11"/><rect class="cls-7" height="6" width="7" x="20" y="5"/><line class="cls-4" x1="6" x2="58" y1="59" y2="59"/><rect class="cls-8" height="7" width="13" x="17" y="31"/></g></svg>