<?xml version="1.0" ?><svg viewBox="0 0 64 64" xmlns="http://www.w3.org/2000/svg"><defs><style>.cls-1{fill:#eaeaea;}.cls-2{fill:#4c241d;}.cls-3{fill:none;}.cls-3,.cls-4{stroke:#4c241d;stroke-linecap:round;stroke-linejoin:round;stroke-width:2px;}.cls-4{fill:#bf7e68;}</style></defs><g id="cone"><circle class="cls-1" cx="35" cy="26" r="23"/><circle class="cls-2" cx="45.1974" cy="11.2813" r="1.0691"/><line class="cls-3" x1="56.966" x2="53.784" y1="20.892" y2="24.074"/><line class="cls-3" x1="53.784" x2="56.966" y1="20.892" y2="24.074"/><circle class="cls-3" cx="10" cy="9" r="2"/><path class="cls-4" d="M35,17.4328c0,5.9024-3.0523,9.9416-4.503,9.9416s-4.8783-4.0392-4.8783-9.9416S30.497,6,30.497,6,35,11.53,35,17.4328Z"/><path class="cls-4" d="M34.5222,21.39c3.16,6.28,1.9361,12.2814.327,13.0909s-7.573-1.5758-10.7325-7.8561-.709-14.887-.709-14.887S31.3627,15.11,34.5222,21.39Z"/><path class="cls-4" d="M26.4689,21.39c-3.16,6.28-1.9361,12.2814-.327,13.0909s7.573-1.5758,10.7325-7.8561.709-14.887.709-14.887S29.6284,15.11,26.4689,21.39Z"/><path class="cls-4" d="M36,25.4328c0,5.9024-3.703,9.9416-5.463,9.9416s-5.9183-4.0392-5.9183-9.9416S30.537,14,30.537,14,36,19.53,36,25.4328Z"/><path class="cls-4" d="M30.5222,27.39c3.1595,6.28,1.9361,12.2814.327,13.0909s-7.573-1.5758-10.7325-7.8561-.709-14.887-.709-14.887S27.3627,21.11,30.5222,27.39Z"/><path class="cls-4" d="M30.4689,27.39c-3.16,6.28-1.9361,12.2814-.327,13.0909s7.573-1.5758,10.7325-7.8561.709-14.887.709-14.887S33.6284,21.11,30.4689,27.39Z"/><path class="cls-4" d="M36,35.4328c0,5.9024-3.703,9.9416-5.463,9.9416s-5.9183-4.0392-5.9183-9.9416S30.537,24,30.537,24,36,29.53,36,35.4328Z"/><path class="cls-4" d="M34.4689,35.39c-3.1595,6.28-1.9361,12.2814-.327,13.0909s7.573-1.5758,10.7325-7.8561.709-14.887.709-14.887S37.6284,29.11,34.4689,35.39Z"/><path class="cls-4" d="M26.5222,35.39c3.1595,6.28,1.9361,12.2814.327,13.0909s-7.573-1.5758-10.7325-7.8561-.709-14.887-.709-14.887S23.3627,29.11,26.5222,35.39Z"/><circle class="cls-4" cx="30.5" cy="54" r="3.5"/><path class="cls-4" d="M37,43.6977C37,49.2205,32.6463,53,30.577,53s-6.9583-3.7795-6.9583-9.3023S30.577,33,30.577,33,37,38.1748,37,43.6977Z"/><path class="cls-4" d="M34.8046,41.1512C29.2441,45.453,27.7578,51.3944,28.86,52.8191s7.5115,1.8467,13.0721-2.4551,7.0643-13.1233,7.0643-13.1233S40.3651,36.8493,34.8046,41.1512Z"/><path class="cls-4" d="M25.713,41.1512c5.56,4.3018,7.0468,10.2432,5.9446,11.6679s-7.5115,1.8467-13.072-2.4551-7.0644-13.1233-7.0644-13.1233S20.1525,36.8493,25.713,41.1512Z"/><line class="cls-4" x1="30.5" x2="30.5" y1="57.5" y2="61"/><circle class="cls-2" cx="56.1974" cy="34.2813" r="1.0691"/></g></svg>