<?xml version="1.0" ?><svg viewBox="0 0 64 64" xmlns="http://www.w3.org/2000/svg"><defs><style>.cls-1{fill:#eaeaea;}.cls-2{fill:#bf7e68;}.cls-2,.cls-4,.cls-5,.cls-6{stroke:#4c241d;stroke-linejoin:round;stroke-width:2px;}.cls-2,.cls-4,.cls-5{stroke-linecap:round;}.cls-3{fill:#4c241d;}.cls-4,.cls-6{fill:none;}.cls-5{fill:#ffce56;}</style></defs><g id="hat"><circle class="cls-1" cx="32" cy="35" r="23"/><polygon class="cls-2" points="49 47 15 47 8 53 56 53 49 47"/><circle class="cls-3" cx="54" cy="21" r="1"/><circle class="cls-3" cx="13" cy="18" r="1"/><line class="cls-4" x1="48.5858" x2="51.4142" y1="10.5858" y2="13.4142"/><line class="cls-4" x1="48.5858" x2="51.4142" y1="13.4142" y2="10.5858"/><circle class="cls-4" cx="10" cy="27" r="2"/><polygon class="cls-2" points="47 42 17 42 25 7 39 7 47 42"/><rect class="cls-5" height="5" width="34" x="15" y="42"/><rect class="cls-5" height="7" width="8" x="28" y="41"/><line class="cls-4" x1="31" x2="36" y1="44" y2="44"/><polyline class="cls-6" points="28 7 32 11 36 7"/><line class="cls-4" x1="32" x2="32" y1="18" y2="11"/></g></svg>