<?xml version="1.0" ?><svg viewBox="0 0 64 64" xmlns="http://www.w3.org/2000/svg"><defs><style>.cls-1{fill:#eaeaea;}.cls-2,.cls-9{fill:none;}.cls-10,.cls-2,.cls-4,.cls-5,.cls-6,.cls-7,.cls-8,.cls-9{stroke:#4c241d;stroke-linejoin:round;stroke-width:2px;}.cls-10,.cls-2,.cls-4,.cls-5,.cls-6,.cls-7,.cls-8{stroke-linecap:round;}.cls-3{fill:#4c241d;}.cls-4{fill:#fc8c29;}.cls-5{fill:#6b4f5b;}.cls-6{fill:#fff;}.cls-7{fill:#e66353;}.cls-8{fill:#bf7e68;}.cls-10{fill:#a9ba5a;}</style></defs><g id="jam"><circle class="cls-1" cx="34" cy="26" r="23"/><line class="cls-2" x1="45.1287" x2="47.9571" y1="9.5858" y2="12.4142"/><line class="cls-2" x1="47.9571" x2="45.1287" y1="9.5858" y2="12.4142"/><circle class="cls-3" cx="53.0429" cy="18.5" r="1.1324"/><circle class="cls-3" cx="30.0429" cy="8.5" r="1.1324"/><circle class="cls-2" cx="7.1903" cy="10.2101" r="2.0846"/><path class="cls-4" d="M33.6,61c4.0357,0,7.57-2.022,8.6918-4.9493A26.2719,26.2719,0,0,0,44,46.6531C44,34.1421,35.4934,24,25,24S6,34.1421,6,46.6531a26.2719,26.2719,0,0,0,1.7081,9.3976C8.83,58.978,12.3642,61,16.4,61Z"/><rect class="cls-5" height="13" width="21" x="15" y="39"/><path class="cls-6" d="M44,30.5a3.1355,3.1355,0,0,1-2.6212,1.5516,3.1,3.1,0,0,1-2.5224-1.4036.897.897,0,0,0-1.5077,0,2.9684,2.9684,0,0,1-5.0449,0,.897.897,0,0,0-1.5077,0,2.9684,2.9684,0,0,1-5.0449,0,.897.897,0,0,0-1.5077,0,2.9684,2.9684,0,0,1-5.0449,0,.897.897,0,0,0-1.5077,0,2.9684,2.9684,0,0,1-5.0449,0,.897.897,0,0,0-1.5077,0,3.1,3.1,0,0,1-2.5225,1.4036A3.1337,3.1337,0,0,1,6,30.5088V30.5A3.5,3.5,0,0,1,9.5,27H40.5A3.5,3.5,0,0,1,44,30.5Z"/><path class="cls-6" d="M14.5,18h21A4.5,4.5,0,0,1,40,22.5v0A1.5,1.5,0,0,1,38.5,24h-27A1.5,1.5,0,0,1,10,22.5v0A4.5,4.5,0,0,1,14.5,18Z"/><path class="cls-7" d="M52.5714,48.2952a3.95,3.95,0,0,0-1.0009.1289,3.6669,3.6669,0,0,1-1.8648,0,3.95,3.95,0,0,0-1.0009-.1289c-2.7457,0-4.9715,2.8441-4.9715,6.3524S45.9589,61,48.7044,61h3.8674c2.7455,0,4.9711-2.8442,4.9711-6.3524S55.3171,48.2952,52.5714,48.2952Z"/><rect class="cls-8" height="3" rx="1.5" width="37" x="6" y="24"/><line class="cls-2" x1="4" x2="60" y1="61" y2="61"/><path class="cls-9" d="M40.9048,48.5446S41,39,49,36c0,0-1.9073,7.6293,1.7284,12.6435"/><path class="cls-7" d="M42.8381,48.2952a3.95,3.95,0,0,0-1.001.1289,3.6665,3.6665,0,0,1-1.8647,0,3.95,3.95,0,0,0-1.001-.1289C36.2258,48.2952,34,51.1393,34,54.6476S36.2256,61,38.971,61h3.8675c2.7455,0,4.971-2.8442,4.971-6.3524S45.5837,48.2952,42.8381,48.2952Z"/><line class="cls-2" x1="19" x2="27" y1="43" y2="43"/><line class="cls-2" x1="19" x2="22" y1="47" y2="47"/><line class="cls-2" x1="25" x2="32" y1="47" y2="47"/><path class="cls-10" d="M55,38h2a0,0,0,0,1,0,0v0a5,5,0,0,1-5,5H50a0,0,0,0,1,0,0v0A5,5,0,0,1,55,38Z" transform="translate(107 81) rotate(180)"/></g></svg>