<?xml version="1.0" ?><svg viewBox="0 0 64 64" xmlns="http://www.w3.org/2000/svg"><defs><style>.cls-1{fill:#eaeaea;}.cls-2{fill:#4c241d;}.cls-3{fill:none;}.cls-3,.cls-4,.cls-5,.cls-6,.cls-7{stroke:#4c241d;stroke-linecap:round;stroke-linejoin:round;stroke-width:2px;}.cls-4{fill:#a9ba5a;}.cls-5{fill:#fc8c29;}.cls-6{fill:#ffec95;}.cls-7{fill:#fff;}</style></defs><g id="pumpkin"><circle class="cls-1" cx="35" cy="27" r="23"/><circle class="cls-2" cx="52" cy="16" r="1"/><line class="cls-3" x1="44" x2="47" y1="9" y2="12"/><line class="cls-3" x1="47" x2="44" y1="9" y2="12"/><path class="cls-4" d="M28.2321,16.3025c-.3682-1.4329-1.0442-2.2235-2.7912-2.0725-4.4015.38-1.177,6.0755,1.9068,3.2605,1.5872-1.4489,7.4063-6.9012,10.0173-3.2032C31.4079,10.8327,30.4877,22.0805,24,21c-5.6736-.9449-4.6167-8.581-.18-9.6723,7.99-1.9655,10.8787,9.2206,9.3762,13.9419L28.188,24.626a10.8347,10.8347,0,0,0,.5559-4.902"/><path class="cls-5" d="M22.3814,24C12.2476,24,4.0325,31.1634,4.0325,40s8.2151,16,18.3489,16h17.27C49.7849,56,58,48.8366,58,40c0-8.7644-8.0815-15.8829-18.1012-15.9986Z"/><path class="cls-5" d="M25.2614,24c-6.7539,0-12.2289,7.1634-12.2289,16s5.475,16,12.2289,16h11.51C43.5249,56,49,48.8366,49,40S43.5249,24,36.771,24Z"/><path class="cls-5" d="M28.4614,24c-2.9983,0-5.4289,7.1634-5.4289,16s2.4306,16,5.4289,16h5.11C36.5694,56,39,48.8366,39,40s-2.4306-16-5.429-16Z"/><polygon class="cls-6" points="54 45.025 54 56 28 56 28 45 54 45.025"/><rect class="cls-5" height="3.2197" width="26" x="28" y="48.892"/><path class="cls-7" d="M44.2588,40.2355c.0022-.0494.0147-.0958.0147-.1458a3.2735,3.2735,0,1,0-6.547,0c0,.05.0125.0964.0147.1458A2.449,2.449,0,0,0,38.5449,45h4.91a2.449,2.449,0,0,0,.8037-4.7645Z"/><line class="cls-3" x1="62" x2="4" y1="56" y2="56"/><circle class="cls-3" cx="12" cy="17" r="2"/></g></svg>